<svg width="124" height="51" viewBox="0 0 124 51" fill="none" xmlns="http://www.w3.org/2000/svg">
<path d="M55.44 21V10.872H56.624V19.992H60.608V21H55.44ZM62.8604 10.872H68.8124V11.88H64.0444V15.224H68.0604V16.232H64.0444V19.992H69.0204V21H62.8604V10.872ZM71.4263 10.872L74.2903 19.272L77.1223 10.872H78.4023L74.7543 21H73.7943L70.1463 10.872H71.4263ZM80.0323 10.872H85.9843V11.88H81.2163V15.224H85.2323V16.232H81.2163V19.992H86.1923V21H80.0323V10.872ZM88.5181 21V10.872H89.7021V19.992H93.6861V21H88.5181ZM99.8463 10.872H101.046V17.128C101.046 19.144 101.852 20.152 103.462 20.152C105.062 20.152 105.862 19.144 105.862 17.128V10.872H107.078V16.776C107.078 19.72 105.873 21.192 103.462 21.192C101.052 21.192 99.8463 19.72 99.8463 16.776V10.872ZM109.956 21V10.872C110.905 10.744 111.726 10.68 112.42 10.68C114.809 10.68 116.004 11.704 116.004 13.752C116.004 14.7867 115.668 15.5813 114.996 16.136C114.388 16.6267 113.572 16.872 112.548 16.872C112.089 16.872 111.62 16.84 111.14 16.776V21H109.956ZM111.14 11.736V15.816C111.524 15.88 111.972 15.912 112.484 15.912C113.998 15.912 114.756 15.192 114.756 13.752C114.756 12.3333 113.977 11.624 112.42 11.624C111.929 11.624 111.502 11.6613 111.14 11.736ZM54.816 39.168L55.328 38.448C56.1067 38.896 56.9333 39.12 57.808 39.12C58.48 39.12 59.008 38.9653 59.392 38.656C59.776 38.336 59.968 37.888 59.968 37.312C59.968 36.3307 59.3227 35.616 58.032 35.168C56.9333 34.7947 56.1387 34.3787 55.648 33.92C55.1573 33.4613 54.912 32.9013 54.912 32.24C54.912 31.4507 55.2213 30.816 55.84 30.336C56.4053 29.8987 57.1467 29.68 58.064 29.68C59.0667 29.68 59.9787 29.9573 60.8 30.512L60.272 31.232C59.6107 30.88 58.9013 30.704 58.144 30.704C57.5253 30.704 57.0347 30.8373 56.672 31.104C56.3093 31.3707 56.128 31.7333 56.128 32.192C56.128 32.9067 56.6827 33.472 57.792 33.888C59.0507 34.368 59.9307 34.864 60.432 35.376C60.944 35.8773 61.2 36.5333 61.2 37.344C61.2 38.272 60.8427 39.0027 60.128 39.536C59.5413 39.9733 58.8267 40.192 57.984 40.192C56.928 40.192 55.872 39.8507 54.816 39.168ZM63.5338 40V29.872C64.4831 29.744 65.3044 29.68 65.9978 29.68C68.3871 29.68 69.5818 30.704 69.5818 32.752C69.5818 33.7867 69.2458 34.5813 68.5738 35.136C67.9658 35.6267 67.1498 35.872 66.1258 35.872C65.6671 35.872 65.1978 35.84 64.7178 35.776V40H63.5338ZM64.7178 30.736V34.816C65.1018 34.88 65.5498 34.912 66.0618 34.912C67.5764 34.912 68.3338 34.192 68.3338 32.752C68.3338 31.3333 67.5551 30.624 65.9978 30.624C65.5071 30.624 65.0804 30.6613 64.7178 30.736ZM73.2001 29.872H74.4321L78.0641 40H76.8481L76.0321 37.632H71.6321L70.8001 40H69.5681L73.2001 29.872ZM73.8081 31.2L71.9521 36.64H75.6801L73.8081 31.2ZM85.9524 30.688L85.4724 31.376C84.7577 30.928 84.027 30.704 83.2804 30.704C82.2564 30.704 81.451 31.1253 80.8644 31.968C80.3204 32.736 80.0484 33.76 80.0484 35.04C80.0484 36.3733 80.4004 37.4133 81.1044 38.16C81.7017 38.8107 82.4697 39.136 83.4084 39.136C84.1764 39.136 84.907 38.8853 85.6004 38.384L86.0804 39.104C85.2484 39.8293 84.3044 40.192 83.2484 40.192C81.787 40.192 80.6404 39.6267 79.8084 38.496C79.1257 37.568 78.7844 36.416 78.7844 35.04C78.7844 33.504 79.2004 32.2133 80.0324 31.168C80.8217 30.176 81.8297 29.68 83.0564 29.68C84.1444 29.68 85.1097 30.016 85.9524 30.688ZM88.251 29.872H94.203V30.88H89.435V34.224H93.451V35.232H89.435V38.992H94.411V40H88.251V29.872Z" fill="#647BCC"/>
<path d="M26 6C26 5.44772 26.4477 5 27 5H41C43.7614 5 46 7.23858 46 10V24C46 24.5523 45.5523 25 45 25H27C26.4477 25 26 24.5523 26 24V6Z" fill="#FF8040"/>
<path d="M5 15C5 9.47715 9.47715 5 15 5H25V25H6C5.44772 25 5 24.5523 5 24V15Z" fill="#FF8040"/>
<path d="M26 26H46V36C46 41.5228 41.5228 46 36 46H27C26.4477 46 26 45.5523 26 45V26Z" fill="#FF8040"/>
</svg>
